<svg width="79" height="75" viewBox="0 0 79 75" fill="none" xmlns="http://www.w3.org/2000/svg">
    <path fill-rule="evenodd" clip-rule="evenodd" d="M78.9174 74.9561L3.97461 74.9561L3.97461 71.9561L78.9174 71.9561L78.9174 74.9561Z" fill="white"/>
    <path fill-rule="evenodd" clip-rule="evenodd" d="M3.97461 0.0132292L3.97461 74.9561L0.974609 74.9561L0.974606 0.0132294L3.97461 0.0132292Z" fill="white"/>
    <path fill-rule="evenodd" clip-rule="evenodd" d="M71.925 66.9623L11.9707 66.9623L11.9707 64.9623L71.925 64.9623L71.925 66.9623Z" fill="white"/>
    <path fill-rule="evenodd" clip-rule="evenodd" d="M11.9707 7.00801L11.9707 66.9623L9.9707 66.9623L9.9707 7.00801L11.9707 7.00801Z" fill="white"/>
    <path fill-rule="evenodd" clip-rule="evenodd" d="M65.9315 58.9684L20.9658 58.9684L20.9658 57.4684L65.9315 57.4684L65.9315 58.9684Z" fill="white"/>
    <path fill-rule="evenodd" clip-rule="evenodd" d="M20.9658 14.0027L20.9658 58.9684L19.4658 58.9684L19.4658 14.0027L20.9658 14.0027Z" fill="white"/>
</svg>
