<svg width="78" height="75" viewBox="0 0 78 75" fill="none" xmlns="http://www.w3.org/2000/svg">
    <path fill-rule="evenodd" clip-rule="evenodd" d="M-0.000442374 -3.27585e-06L74.9424 0L74.9424 3L-0.000442505 3L-0.000442374 -3.27585e-06Z" fill="#ffffff"/>
    <path fill-rule="evenodd" clip-rule="evenodd" d="M74.9424 74.9428L74.9424 -1.31134e-07L77.9424 0L77.9424 74.9428L74.9424 74.9428Z" fill="#ffffff"/>
    <path fill-rule="evenodd" clip-rule="evenodd" d="M6.99104 7.99389L66.9453 7.9939L66.9453 9.9939L6.99104 9.99389L6.99104 7.99389Z" fill="#ffffff"/>
    <path fill-rule="evenodd" clip-rule="evenodd" d="M66.9453 67.9482L66.9453 7.9939L68.9453 7.9939L68.9453 67.9482L66.9453 67.9482Z" fill="#ffffff"/>
    <path fill-rule="evenodd" clip-rule="evenodd" d="M12.9845 15.9879L57.9502 15.9879L57.9502 17.4879L12.9845 17.4879L12.9845 15.9879Z" fill="#ffffff"/>
    <path fill-rule="evenodd" clip-rule="evenodd" d="M57.9502 60.9536L57.9502 15.9879L59.4502 15.9879L59.4502 60.9536L57.9502 60.9536Z" fill="#ffffff"/>
</svg>
