<svg width="76" height="78" viewBox="0 0 76 78" fill="none" xmlns="http://www.w3.org/2000/svg">
    <path fill-rule="evenodd" clip-rule="evenodd" d="M75.0254 0.0129855L75.0254 74.9558L72.0254 74.9558L72.0254 0.0129852L75.0254 0.0129855Z" fill="white"/>
    <path fill-rule="evenodd" clip-rule="evenodd" d="M0.0825656 74.9558L75.0254 74.9558L75.0254 77.9558L0.0825653 77.9558L0.0825656 74.9558Z" fill="white"/>
    <path fill-rule="evenodd" clip-rule="evenodd" d="M67.0303 7.00764L67.0303 66.9619L65.0303 66.9619L65.0303 7.00764L67.0303 7.00764Z" fill="white"/>
    <path fill-rule="evenodd" clip-rule="evenodd" d="M7.076 66.9619L67.0303 66.9619L67.0303 68.9619L7.076 68.9619L7.076 66.9619Z" fill="white"/>
    <path fill-rule="evenodd" clip-rule="evenodd" d="M59.0371 13.0034L59.0371 57.9691L57.5371 57.9691L57.5371 13.0034L59.0371 13.0034Z" fill="white"/>
    <path fill-rule="evenodd" clip-rule="evenodd" d="M14.0714 57.9691L59.0371 57.9691L59.0371 59.4691L14.0714 59.4691L14.0714 57.9691Z" fill="white"/>
</svg>
