<svg width="214" height="234" viewBox="0 0 214 234" fill="none" xmlns="http://www.w3.org/2000/svg">
    <path d="M169.821 68.7755L141.795 52.84L150.257 21.7444C150.389 21.2657 150.249 20.7572 149.893 20.4055C149.536 20.0539 149.019 19.914 148.531 20.0454L117.273 28.2949L101.094 0.694873C100.84 0.266933 100.377 0 99.8726 0C99.3678 0 98.9055 0.262696 98.651 0.694873L82.4725 28.2949L51.2143 20.0454C50.7265 19.914 50.209 20.0539 49.8526 20.4055C49.4963 20.7572 49.3606 21.2657 49.4878 21.7444L57.9503 52.84L29.9202 68.7755C29.4833 69.0255 29.216 69.4831 29.216 69.9788C29.216 70.4745 29.4833 70.9321 29.9202 71.1821L57.8443 87.0583L49.4878 117.764C49.3606 118.243 49.4963 118.751 49.8526 119.103C50.1199 119.366 50.4762 119.51 50.8495 119.51C50.9725 119.51 51.0955 119.497 51.2143 119.463L82.6125 111.18L98.6552 138.542C98.9097 138.97 99.3721 139.237 99.8769 139.237C100.382 139.237 100.844 138.975 101.099 138.542L117.235 111.014L148.535 119.272C148.658 119.306 148.781 119.319 148.9 119.319C149.265 119.319 149.63 119.179 149.897 118.917C150.253 118.565 150.389 118.052 150.257 117.578L141.943 87.0286L169.825 71.1737C170.262 70.9279 170.529 70.4703 170.529 69.9746C170.529 69.4788 170.262 69.017 169.825 68.7713L169.821 68.7755ZM146.906 23.3418L139.212 51.6155L120.004 49.8317L118.193 30.9176L146.906 23.3418ZM126.796 72.5761L137.311 85.0923L120.636 86.6515C123.975 82.7577 126.193 77.9021 126.8 72.5761H126.796ZM120.713 52.6833L137.808 54.2679L126.855 67.301C126.371 61.7674 124.14 56.7169 120.713 52.6833ZM117.116 49.1792C113.001 45.8574 107.864 43.7092 102.252 43.277L115.517 32.4768L117.116 49.1792ZM99.8726 4.16077L114.736 29.5067L99.8769 41.6161L85.0134 29.5067L99.8726 4.16077ZM84.2287 32.4684L97.5481 43.3152C91.8555 43.8448 86.6762 46.1455 82.5786 49.6368L84.2244 32.4641L84.2287 32.4684ZM33.4367 69.9788L59.1762 55.3441L71.4734 69.983L59.1762 84.6135L33.4367 69.9788ZM79.8553 86.9058L62.2855 85.2703L73.4162 72.0253C73.9337 77.686 76.2752 82.8424 79.8553 86.91V86.9058ZM73.361 67.8772L61.9335 54.2679L79.5965 52.6282C76.0249 56.8101 73.7428 62.0937 73.3653 67.8772H73.361ZM52.8389 116.162L60.5336 87.893L79.7408 89.6768L81.552 108.587L52.8389 116.162ZM79.7323 49.8317L60.5294 51.6155L52.8347 23.3418L81.5478 30.9176L79.7323 49.8317ZM82.5574 89.5708C86.655 93.0791 91.8428 95.3798 97.5438 95.9179L84.2032 106.786L82.5574 89.5751V89.5708ZM99.8726 135.077L85.0134 109.731L99.8684 97.6212L114.732 109.731L99.8726 135.077ZM115.521 106.773L102.248 95.9603C107.873 95.5239 113.01 93.3799 117.128 90.0539L115.525 106.773H115.521ZM146.902 115.972L118.189 108.396L120.004 89.4861L139.207 87.6981L146.902 115.972ZM140.56 84.6135L128.263 69.9788L140.56 55.3399L166.3 69.9788L140.56 84.6135Z" fill="url(#paint0_radial_110_8680)"/>
    <path d="M102.839 55.969L102.419 55.9266C102.186 55.9012 101.015 55.7529 100.757 55.2402C100.701 55.1216 100.659 54.9352 100.799 54.7064C100.956 54.4564 101.138 54.4055 101.291 54.4098C101.906 54.4098 102.555 55.486 102.627 55.6088L102.844 55.969H102.839Z" fill="#F5EB14"/>
    <path d="M97.0591 72.4736L96.6392 72.427C96.4101 72.4058 95.2521 72.2576 94.9976 71.7491C94.9382 71.6347 94.9 71.4483 95.04 71.2195C95.1927 70.978 95.3793 70.9271 95.5236 70.9271H95.5278C96.1344 70.9356 96.7749 71.9906 96.847 72.1135L97.0634 72.4736H97.0591Z" fill="#F5EB14"/>
    <path d="M108.696 51.3535L108.277 51.3069C108.026 51.2815 106.766 51.1205 106.491 50.5739C106.431 50.4511 106.389 50.2519 106.537 50.0104C106.699 49.7562 106.898 49.7011 107.046 49.7011H107.055C107.721 49.7096 108.459 50.9383 108.489 50.9934L108.701 51.3535H108.696Z" fill="#F5EB14"/>
    <path d="M94.6612 58.5349L94.2413 58.4883C93.9698 58.4629 92.5997 58.2892 92.3028 57.7002C92.2391 57.5689 92.1967 57.3612 92.3494 57.1028C92.5234 56.8274 92.7482 56.7681 92.9009 56.7723C93.6135 56.7808 94.411 58.1154 94.4449 58.1748L94.6612 58.5349Z" fill="#F5EB14"/>
    <path d="M92.8394 81.0191L92.4195 80.9768C92.1225 80.9429 90.6294 80.7565 90.307 80.1167C90.2392 79.9768 90.1925 79.7565 90.3579 79.4811C90.5446 79.1845 90.7779 79.1083 90.9433 79.1252C91.7238 79.1337 92.5934 80.5954 92.6316 80.659L92.8437 81.0191H92.8394Z" fill="#F5EB14"/>
    <path d="M112.95 80.1774L112.53 80.1308C112.288 80.1054 111.088 79.9571 110.825 79.4317C110.766 79.3089 110.727 79.1182 110.867 78.8851C111.024 78.6394 111.219 78.5843 111.364 78.5843H111.368C111.996 78.5928 112.662 79.6902 112.738 79.8173L112.954 80.1774H112.95Z" fill="#F5EB14"/>
    <path d="M104.402 89.8554L103.978 89.8088C103.715 89.7791 102.37 89.6096 102.082 89.0334C102.018 88.902 101.971 88.6987 102.128 88.4444C102.298 88.1733 102.506 88.1267 102.667 88.1182C103.371 88.1267 104.152 89.4359 104.186 89.491L104.402 89.8554Z" fill="#F5EB14"/>
    <path d="M95.7551 49.8326C95.7508 50.4681 94.5928 51.1461 94.4655 51.2223L94.1008 51.4342L94.1432 51.019C94.1686 50.7732 94.3298 49.5529 94.8813 49.286C95.0043 49.2224 95.2036 49.1843 95.4454 49.3284C95.7084 49.4851 95.7636 49.6885 95.7593 49.8326H95.7551Z" fill="#F5EB14"/>
    <path d="M88.6829 68.8344C88.6744 69.4657 87.5334 70.1352 87.4061 70.2114L87.0371 70.4191L87.0837 70.0038C87.1092 69.7665 87.2704 68.559 87.8133 68.2921C87.9364 68.2327 88.1315 68.1904 88.3733 68.3344C88.6363 68.4912 88.6872 68.6946 88.6872 68.8344H88.6829Z" fill="#F5EB14"/>
    <path d="M105.178 74.426C105.11 74.5319 104.974 74.6633 104.711 74.6675H104.698C104.423 74.6675 104.283 74.5319 104.21 74.4218C103.905 73.926 104.452 72.871 104.516 72.7524L104.715 72.3838L104.902 72.7608C104.999 72.9558 105.47 73.9599 105.178 74.426Z" fill="#F5EB14"/>
    <path d="M113.219 86.8742C113.058 87.0352 112.905 87.0776 112.773 87.0776C112.727 87.0776 112.684 87.0733 112.646 87.0649C112.01 86.9166 111.59 85.6455 111.548 85.4972L111.42 85.0989L111.823 85.2345C112.061 85.315 113.244 85.7472 113.384 86.3361C113.418 86.4717 113.414 86.6708 113.215 86.8742H113.219Z" fill="#F5EB14"/>
    <path d="M117.12 57.8454C116.946 58.0149 116.781 58.0657 116.645 58.0657C116.594 58.0657 116.548 58.0572 116.51 58.0488C115.827 57.8877 115.369 56.5022 115.318 56.3455L115.195 55.9429L115.593 56.0785C115.852 56.1675 117.146 56.6378 117.303 57.2776C117.337 57.4174 117.332 57.6335 117.12 57.8454Z" fill="#F5EB14"/>
    <path d="M122.186 68.2542C122.012 68.4237 121.851 68.4746 121.711 68.4746C121.66 68.4746 121.618 68.4661 121.579 68.4576C120.897 68.2966 120.438 66.9154 120.392 66.7586L120.269 66.3603L120.667 66.4959C120.926 66.5849 122.211 67.0509 122.368 67.6865C122.402 67.8306 122.398 68.0424 122.186 68.2542Z" fill="#F5EB14"/>
    <path d="M80.0779 70.0001C79.9209 70.1611 79.764 70.2034 79.6367 70.2034C79.5901 70.2034 79.5477 70.1992 79.5095 70.1907C78.8817 70.0424 78.466 68.784 78.4193 68.64L78.2963 68.2417L78.695 68.3773C78.9326 68.4578 80.1076 68.8815 80.2433 69.4704C80.2773 69.6018 80.273 69.8009 80.0736 70.0001H80.0779Z" fill="#F5EB14"/>
    <path d="M86.6627 85.0789C86.5227 85.223 86.3743 85.2654 86.2597 85.2654C86.2173 85.2654 86.1749 85.2611 86.141 85.2527C85.5726 85.1171 85.2035 83.9943 85.1653 83.8671L85.0423 83.4646L85.4411 83.6044C85.6532 83.6722 86.6967 84.0536 86.8281 84.5832C86.8578 84.7061 86.8536 84.8925 86.667 85.0789H86.6627Z" fill="#F5EB14"/>
    <path d="M115.092 64.4688C115.016 64.5916 114.859 64.7399 114.557 64.7442H114.545C114.231 64.7442 114.065 64.5916 113.989 64.4645C113.62 63.8713 114.333 62.5197 114.362 62.4647L114.562 62.0918L114.753 62.4689C114.867 62.7062 115.435 63.918 115.092 64.4688Z" fill="#F5EB14"/>
    <path d="M119.35 79.3109C119.282 79.4253 119.137 79.5609 118.862 79.5652H118.849C118.561 79.5652 118.408 79.4253 118.336 79.3067C118.013 78.7813 118.599 77.6542 118.667 77.5271L118.866 77.1585L119.053 77.5356C119.154 77.7432 119.659 78.8152 119.35 79.3109Z" fill="#F5EB14"/>
    <path d="M107.296 60.0051L107.16 60.3991C107.079 60.6279 106.651 61.7762 106.057 61.9117C106.023 61.9202 105.981 61.9287 105.934 61.9287C105.815 61.9287 105.667 61.8863 105.522 61.7465C105.302 61.5389 105.298 61.327 105.332 61.1915C105.484 60.5771 106.748 60.1703 106.893 60.128L107.296 60.0051Z" fill="#F5EB14"/>
    <path d="M95.9706 86.939L95.8349 87.3373C95.7543 87.5788 95.3004 88.7863 94.6811 88.9304C94.6429 88.9389 94.5963 88.9431 94.5496 88.9431C94.4266 88.9431 94.2739 88.9007 94.1254 88.7567C93.8964 88.5406 93.8921 88.3245 93.926 88.1804C94.083 87.5364 95.4192 87.1127 95.5719 87.0661L95.9749 86.939H95.9706Z" fill="#F5EB14"/>
    <path d="M111.046 67.9444L110.91 68.3384C110.838 68.5545 110.431 69.635 109.871 69.7621C109.832 69.7706 109.794 69.779 109.752 69.779C109.637 69.779 109.493 69.7409 109.357 69.6053C109.145 69.4062 109.141 69.2028 109.175 69.0714C109.315 68.491 110.511 68.1096 110.643 68.0673L111.046 67.9444Z" fill="#F5EB14"/>
    <path d="M99.3529 64.0902L99.2171 64.4885C99.145 64.6919 98.7505 65.7342 98.2118 65.8613C98.1779 65.8698 98.1397 65.874 98.0973 65.874C97.987 65.874 97.847 65.8359 97.7113 65.7045C97.5077 65.5096 97.5034 65.3147 97.5331 65.1834C97.6689 64.6241 98.8184 64.2554 98.9499 64.2173L99.3571 64.0902H99.3529Z" fill="#F5EB14"/>
    <path d="M101.052 80.0921L100.916 80.4904C100.835 80.7235 100.39 81.9098 99.7791 82.0496C99.7409 82.0581 99.6985 82.0666 99.6518 82.0666C99.5331 82.0666 99.3803 82.0242 99.2361 81.8802C99.0071 81.6683 99.0028 81.4522 99.0368 81.3124C99.1979 80.6684 100.589 80.2362 100.653 80.2193L101.056 80.0921H101.052Z" fill="#F5EB14"/>
    <path d="M81.8469 76.2233L81.7111 76.6174C81.6305 76.8589 81.1724 78.0707 80.5531 78.2147C80.5149 78.2232 80.4725 78.2317 80.4258 78.2317C80.3028 78.2317 80.1501 78.1893 79.9974 78.0452C79.7726 77.8249 79.7641 77.6088 79.798 77.4648C79.9592 76.8207 81.2954 76.3928 81.4481 76.3462L81.8511 76.2233H81.8469Z" fill="#F5EB14"/>
    <path d="M85.2956 58.5061L85.1599 58.9044C85.0877 59.112 84.6932 60.1543 84.1503 60.2815C84.1164 60.2899 84.0782 60.2942 84.0358 60.2942C83.9255 60.2942 83.7855 60.256 83.6498 60.1289C83.4461 59.9298 83.4419 59.7349 83.4716 59.6035C83.6073 59.04 84.7611 58.6714 84.8926 58.6333L85.2998 58.5061H85.2956Z" fill="#F5EB14"/>
    <path d="M77.9221 197.669H69.1923L49.421 167.832V197.669H40.6913V154.125H49.421L69.1923 184.026V154.125H77.9221V197.669Z" fill="#F5EB14"/>
    <path d="M110.078 156.878C113.548 158.666 116.229 161.209 118.121 164.509C120.012 167.81 120.958 171.64 120.958 176C120.958 180.36 120.012 184.169 118.121 187.432C116.229 190.694 113.548 193.215 110.078 194.999C106.608 196.787 102.583 197.677 98.0099 197.677H82.7943V154.196H98.0099C102.583 154.196 106.604 155.09 110.078 156.874V156.878ZM108.301 186.529C110.795 184.038 112.042 180.529 112.042 176C112.042 171.471 110.795 167.933 108.301 165.378C105.806 162.823 102.273 161.548 97.7002 161.548H91.5283V190.266H97.7002C102.273 190.266 105.806 189.02 108.301 186.529Z" fill="#F5EB14"/>
    <path d="M154.074 167.279C153.077 165.453 151.702 164.063 149.959 163.106C148.211 162.153 146.175 161.674 143.846 161.674C141.267 161.674 138.981 162.254 136.987 163.419C134.989 164.585 133.433 166.246 132.309 168.402C131.184 170.563 130.625 173.054 130.625 175.876C130.625 178.698 131.197 181.317 132.338 183.478C133.479 185.638 135.07 187.299 137.11 188.46C139.146 189.625 141.518 190.206 144.22 190.206C147.545 190.206 150.269 189.325 152.39 187.558C154.51 185.795 155.902 183.333 156.568 180.177H141.602V173.512H165.174V181.113C164.593 184.147 163.346 186.948 161.433 189.524C159.52 192.1 157.056 194.163 154.044 195.723C151.028 197.282 147.651 198.057 143.91 198.057C139.711 198.057 135.918 197.112 132.529 195.223C129.14 193.333 126.48 190.706 124.546 187.342C122.612 183.977 121.645 180.156 121.645 175.881C121.645 171.605 122.612 167.771 124.546 164.39C126.48 161.004 129.14 158.369 132.529 156.479C135.918 154.589 139.689 153.645 143.846 153.645C148.75 153.645 153.013 154.839 156.631 157.225C160.25 159.615 162.744 162.966 164.114 167.284H154.074V167.279Z" fill="#F5EB14"/>
    <path d="M11.3639 215.235H2.62571V222.005H9.72234V224.137H2.62571V233.183H0V213.099H11.3639V215.235Z" fill="#F5EB14"/>
    <path d="M12.7906 220.982C13.4439 219.762 14.3431 218.817 15.4884 218.143C16.6337 217.469 17.9063 217.135 19.3104 217.135C20.7144 217.135 21.8979 217.431 22.9159 218.029C23.934 218.626 24.6933 219.372 25.1938 220.274V217.393H27.8492V233.18H25.1938V230.24C24.6763 231.163 23.9 231.926 22.8735 232.532C21.8427 233.138 20.6465 233.439 19.2807 233.439C17.9148 233.439 16.6083 233.091 15.4715 232.401C14.3347 231.71 13.4439 230.74 12.7906 229.49C12.1374 228.24 11.8108 226.821 11.8108 225.227C11.8108 223.634 12.1374 222.198 12.7906 220.978V220.982ZM24.4727 222.151C23.9934 221.27 23.3444 220.592 22.5257 220.122C21.707 219.651 20.8077 219.414 19.8279 219.414C18.848 219.414 17.953 219.643 17.147 220.105C16.3411 220.567 15.6963 221.24 15.2127 222.122C14.7334 223.007 14.4916 224.041 14.4916 225.232C14.4916 226.422 14.7334 227.494 15.2127 228.388C15.6921 229.282 16.3368 229.964 17.147 230.435C17.953 230.905 18.848 231.142 19.8279 231.142C20.8077 231.142 21.707 230.909 22.5257 230.435C23.3444 229.964 23.9934 229.282 24.4727 228.388C24.952 227.494 25.1938 226.452 25.1938 225.261C25.1938 224.071 24.952 223.033 24.4727 222.151Z" fill="#F5EB14"/>
    <path d="M33.2148 211.861V233.182H30.589V211.861H33.2148Z" fill="#F5EB14"/>
    <path d="M35.9545 220.982C36.6077 219.762 37.507 218.817 38.6523 218.143C39.7976 217.469 41.0701 217.135 42.4742 217.135C43.8782 217.135 45.0617 217.431 46.0798 218.029C47.0978 218.626 47.8571 219.372 48.3576 220.274V217.393H51.013V233.18H48.3576V230.24C47.8401 231.163 47.0639 231.926 46.0373 232.532C45.0066 233.138 43.8104 233.439 42.4445 233.439C41.0786 233.439 39.7721 233.091 38.6353 232.401C37.4985 231.71 36.6077 230.74 35.9545 229.49C35.3012 228.24 34.9746 226.821 34.9746 225.227C34.9746 223.634 35.3012 222.198 35.9545 220.978V220.982ZM47.6365 222.151C47.1572 221.27 46.5082 220.592 45.6895 220.122C44.8708 219.651 43.9716 219.414 42.9917 219.414C42.0118 219.414 41.1168 219.643 40.3108 220.105C39.5049 220.567 38.8601 221.24 38.3766 222.122C37.8972 223.007 37.6554 224.041 37.6554 225.232C37.6554 226.422 37.8972 227.494 38.3766 228.388C38.8559 229.282 39.5006 229.964 40.3108 230.435C41.1168 230.905 42.0118 231.142 42.9917 231.142C43.9716 231.142 44.8708 230.909 45.6895 230.435C46.5082 229.964 47.1572 229.282 47.6365 228.388C48.1159 227.494 48.3576 226.452 48.3576 225.261C48.3576 224.071 48.1159 223.033 47.6365 222.151Z" fill="#F5EB14"/>
    <path d="M60.1333 219.562H56.8161V233.188H54.1904V219.562H52.1416V217.401H54.1904V216.278C54.1904 214.511 54.6485 213.219 55.5605 212.401C56.4725 211.583 57.9402 211.177 59.9593 211.177V213.367C58.8056 213.367 57.9911 213.592 57.5203 214.045C57.0494 214.498 56.8119 215.24 56.8119 216.278V217.401H60.129V219.562H60.1333Z" fill="#F5EB14"/>
    <path d="M75.8047 226.273H63.1725C63.2701 227.828 63.8003 229.044 64.7717 229.917C65.7431 230.79 66.9223 231.226 68.3051 231.226C69.4377 231.226 70.3879 230.964 71.1472 230.434C71.9065 229.905 72.441 229.201 72.7464 228.316H75.5714C75.1473 229.833 74.3031 231.065 73.0348 232.019C71.7665 232.972 70.1885 233.447 68.3051 233.447C66.8035 233.447 65.4631 233.112 64.2796 232.438C63.0961 231.765 62.1672 230.811 61.497 229.57C60.8225 228.333 60.4874 226.896 60.4874 225.261C60.4874 223.625 60.814 222.197 61.4673 220.969C62.1205 219.74 63.041 218.795 64.2202 218.13C65.4037 217.469 66.7611 217.134 68.3009 217.134C69.8407 217.134 71.126 217.46 72.2798 218.113C73.4335 218.765 74.3243 219.664 74.9479 220.808C75.5714 221.952 75.8853 223.244 75.8853 224.685C75.8853 225.185 75.8557 225.714 75.8005 226.269L75.8047 226.273ZM72.5173 221.562C72.0762 220.842 71.4738 220.295 70.7145 219.918C69.9552 219.545 69.1153 219.354 68.1906 219.354C66.8629 219.354 65.7346 219.778 64.8014 220.621C63.8682 221.469 63.3337 222.638 63.2022 224.138H73.1833C73.1833 223.138 72.9627 222.278 72.5216 221.558L72.5173 221.562Z" fill="#F5EB14"/>
    <path d="M80.2457 211.861V233.182H77.6199V211.861H80.2457Z" fill="#F5EB14"/>
    <path d="M104.395 233.185L101.769 230.533C100.789 231.55 99.7413 232.304 98.6257 232.795C97.5101 233.287 96.2503 233.528 94.8462 233.528C93.4422 233.528 92.2375 233.278 91.1685 232.778C90.0996 232.278 89.2724 231.567 88.687 230.647C88.1017 229.723 87.809 228.651 87.809 227.418C87.809 226.016 88.2077 224.783 89.0052 223.715C89.8026 222.648 90.9819 221.809 92.5386 221.194C91.9236 220.466 91.4824 219.792 91.2109 219.177C90.9395 218.563 90.808 217.889 90.808 217.161C90.808 216.317 91.0243 215.551 91.457 214.868C91.8896 214.186 92.509 213.652 93.3191 213.271C94.1251 212.885 95.0583 212.695 96.1188 212.695C97.1792 212.695 98.0615 212.898 98.8293 213.301C99.5971 213.703 100.174 214.267 100.56 214.987C100.946 215.707 101.116 216.508 101.077 217.394H98.4518C98.4688 216.606 98.2482 215.987 97.7901 215.534C97.3277 215.084 96.7338 214.856 96 214.856C95.2322 214.856 94.6087 215.072 94.1378 215.504C93.667 215.936 93.4294 216.487 93.4294 217.161C93.4294 217.737 93.5864 218.296 93.9045 218.83C94.2227 219.368 94.7571 220.029 95.5037 220.817L101.502 226.838L102.019 226.033L103.979 222.749H106.804L104.437 226.842C104.11 227.418 103.724 228.024 103.283 228.656L107.814 233.181H104.382L104.395 233.185ZM97.6586 230.677C98.4942 230.274 99.2874 229.651 100.038 228.804L94.1251 222.868C91.6648 223.809 90.4347 225.3 90.4347 227.334C90.4347 228.469 90.8419 229.41 91.6606 230.156C92.4793 230.901 93.5397 231.278 94.8462 231.278C95.8855 231.278 96.8229 231.075 97.6586 230.673V230.677Z" fill="#F5EB14"/>
    <path d="M126.58 223.74C127.187 224.219 127.666 224.816 128.022 225.528C128.379 226.24 128.557 226.998 128.557 227.803C128.557 228.82 128.298 229.739 127.776 230.553C127.259 231.371 126.504 232.015 125.511 232.485C124.523 232.955 123.352 233.193 122.007 233.193H114.508V213.109H121.719C123.085 213.109 124.247 213.334 125.21 213.787C126.173 214.24 126.894 214.851 127.373 215.617C127.853 216.384 128.094 217.249 128.094 218.21C128.094 219.401 127.772 220.384 127.127 221.164C126.483 221.943 125.63 222.503 124.574 222.85C125.303 222.964 125.974 223.265 126.58 223.744V223.74ZM117.133 221.778H121.545C122.775 221.778 123.725 221.49 124.4 220.914C125.074 220.337 125.409 219.541 125.409 218.524C125.409 217.507 125.074 216.711 124.4 216.134C123.725 215.558 122.754 215.27 121.486 215.27H117.129V221.782L117.133 221.778ZM124.837 230.108C125.566 229.494 125.931 228.638 125.931 227.545C125.931 226.452 125.545 225.553 124.777 224.909C124.01 224.265 122.979 223.943 121.689 223.943H117.133V231.032H121.778C123.085 231.032 124.103 230.727 124.837 230.108Z" fill="#F5EB14"/>
    <path d="M130.458 220.982C131.111 219.762 132.011 218.817 133.156 218.143C134.301 217.469 135.574 217.135 136.978 217.135C138.382 217.135 139.566 217.431 140.584 218.029C141.602 218.626 142.361 219.372 142.861 220.274V217.393H145.517V233.18H142.861V230.24C142.344 231.163 141.568 231.926 140.541 232.532C139.51 233.138 138.314 233.439 136.948 233.439C135.582 233.439 134.276 233.091 133.139 232.401C132.002 231.71 131.111 230.74 130.458 229.49C129.805 228.24 129.478 226.821 129.478 225.227C129.478 223.634 129.805 222.198 130.458 220.978V220.982ZM142.14 222.151C141.661 221.27 141.012 220.592 140.193 220.122C139.375 219.651 138.475 219.414 137.495 219.414C136.516 219.414 135.621 219.643 134.815 220.105C134.009 220.567 133.364 221.24 132.88 222.122C132.401 223.007 132.159 224.041 132.159 225.232C132.159 226.422 132.401 227.494 132.88 228.388C133.36 229.282 134.004 229.964 134.815 230.435C135.621 230.905 136.516 231.142 137.495 231.142C138.475 231.142 139.375 230.909 140.193 230.435C141.012 229.964 141.661 229.282 142.14 228.388C142.62 227.494 142.861 226.452 142.861 225.261C142.861 224.071 142.62 223.033 142.14 222.151Z" fill="#F5EB14"/>
    <path d="M157.059 233.182L150.857 226.208V233.182H148.232V211.861H150.857V224.395L156.944 217.395H160.609L153.169 225.259L160.639 233.182H157.059Z" fill="#F5EB14"/>
    <path d="M163.988 211.861V233.182H161.362V211.861H163.988Z" fill="#F5EB14"/>
    <path d="M166.723 220.982C167.377 219.762 168.276 218.817 169.421 218.143C170.566 217.469 171.839 217.135 173.243 217.135C174.647 217.135 175.831 217.431 176.849 218.029C177.867 218.626 178.626 219.372 179.126 220.274V217.393H181.782V233.18H179.126V230.24C178.609 231.163 177.833 231.926 176.806 232.532C175.775 233.138 174.579 233.439 173.213 233.439C171.847 233.439 170.541 233.091 169.404 232.401C168.267 231.71 167.377 230.74 166.723 229.49C166.07 228.24 165.743 226.821 165.743 225.227C165.743 223.634 166.07 222.198 166.723 220.978V220.982ZM178.405 222.151C177.926 221.27 177.277 220.592 176.458 220.122C175.64 219.651 174.74 219.414 173.761 219.414C172.781 219.414 171.886 219.643 171.08 220.105C170.274 220.567 169.629 221.24 169.145 222.122C168.666 223.007 168.424 224.041 168.424 225.232C168.424 226.422 168.666 227.494 169.145 228.388C169.625 229.282 170.269 229.964 171.08 230.435C171.886 230.905 172.781 231.142 173.761 231.142C174.74 231.142 175.64 230.909 176.458 230.435C177.277 229.964 177.926 229.282 178.405 228.388C178.885 227.494 179.126 226.452 179.126 225.261C179.126 224.071 178.885 223.033 178.405 222.151Z" fill="#F5EB14"/>
    <path d="M190.368 230.765L195.271 217.397H198.071L191.869 233.184H188.811L182.61 217.397H185.435L190.368 230.765Z" fill="#F5EB14"/>
    <path d="M198.941 220.982C199.595 219.762 200.494 218.817 201.639 218.143C202.785 217.469 204.057 217.135 205.461 217.135C206.865 217.135 208.049 217.431 209.067 218.029C210.085 218.626 210.844 219.372 211.345 220.274V217.393H214V233.18H211.345V230.24C210.827 231.163 210.051 231.926 209.024 232.532C207.994 233.138 206.797 233.439 205.431 233.439C204.066 233.439 202.759 233.091 201.622 232.401C200.485 231.71 199.595 230.74 198.941 229.49C198.288 228.24 197.962 226.821 197.962 225.227C197.962 223.634 198.288 222.198 198.941 220.978V220.982ZM210.623 222.151C210.144 221.27 209.495 220.592 208.676 220.122C207.858 219.651 206.958 219.414 205.979 219.414C204.999 219.414 204.104 219.643 203.298 220.105C202.492 220.567 201.847 221.24 201.363 222.122C200.884 223.007 200.642 224.041 200.642 225.232C200.642 226.422 200.884 227.494 201.363 228.388C201.843 229.282 202.488 229.964 203.298 230.435C204.104 230.905 204.999 231.142 205.979 231.142C206.958 231.142 207.858 230.909 208.676 230.435C209.495 229.964 210.144 229.282 210.623 228.388C211.103 227.494 211.345 226.452 211.345 225.261C211.345 224.071 211.103 223.033 210.623 222.151Z" fill="#F5EB14"/>
    <defs>
    <radialGradient id="paint0_radial_110_8680" cx="0" cy="0" r="1" gradientUnits="userSpaceOnUse" gradientTransform="translate(108.333 116.21) scale(107.461 116.115)">
    <stop offset="0.1" stop-color="#064D29"/>
    <stop offset="0.44" stop-color="#26B34B"/>
    <stop offset="0.47" stop-color="#38B846"/>
    <stop offset="0.58" stop-color="#71C736"/>
    <stop offset="0.68" stop-color="#A1D429"/>
    <stop offset="0.77" stop-color="#C6DE1F"/>
    <stop offset="0.86" stop-color="#E1E618"/>
    <stop offset="0.94" stop-color="#F1EA14"/>
    <stop offset="1" stop-color="#F7EC13"/>
    </radialGradient>
    </defs>
</svg>
