<svg width="46" height="46" viewBox="0 0 46 46" fill="none" xmlns="http://www.w3.org/2000/svg">
<g clip-path="url(#clip0_80_7352)">
<path d="M45.7708 22.7221L36.6478 17.4569L39.4026 7.18311C39.4454 7.0243 39.3995 6.85633 39.2834 6.74027C39.1673 6.62422 38.9992 6.57841 38.8403 6.62117L28.6646 9.3469L23.398 0.229053C23.3155 0.0870402 23.1642 0 23.0008 0C22.8373 0 22.686 0.0870402 22.6035 0.229053L17.3369 9.3469L7.16119 6.62117C7.00229 6.57841 6.83422 6.62422 6.71811 6.74027C6.60199 6.85633 6.55768 7.0243 6.59893 7.18311L9.35371 17.4569L0.229183 22.7221C0.0870894 22.8045 0 22.9557 0 23.1191C0 23.2825 0.0870894 23.4337 0.229183 23.5161L9.31856 28.7615L6.59893 38.9055C6.55768 39.0643 6.60199 39.2322 6.71811 39.3483C6.80519 39.4353 6.92131 39.4827 7.04202 39.4827C7.08174 39.4827 7.12147 39.4781 7.16119 39.4674L17.3812 36.731L22.6035 45.7709C22.686 45.913 22.8373 46 23.0008 46C23.1642 46 23.3155 45.913 23.398 45.7709L28.6509 36.676L38.8403 39.4048C38.8801 39.4155 38.9198 39.4201 38.9595 39.4201C39.0787 39.4201 39.1963 39.3743 39.2834 39.2872C39.3995 39.1712 39.4439 39.0017 39.4011 38.8444L36.6952 28.7523L45.7708 23.5146C45.9129 23.4337 46 23.2825 46 23.1191C46 22.9557 45.9129 22.803 45.7708 22.7221ZM38.3117 7.71146L35.8075 17.0522L29.5554 16.4628L28.9656 10.2142L38.3117 7.71146ZM31.7647 23.9773L35.1872 28.1125L29.7586 28.6271C30.8449 27.3413 31.5676 25.7364 31.7647 23.9773ZM29.7846 17.405L35.3491 17.9288L31.7846 22.235C31.6272 20.4071 30.9015 18.7381 29.7846 17.405ZM28.6142 16.2475C27.2743 15.1496 25.6028 14.441 23.7754 14.2975L28.0932 10.7289L28.6142 16.2475ZM23.0008 1.37432L27.8396 9.74851L23.0023 13.7493L18.1635 9.74851L23.0008 1.37432ZM17.9083 10.7273L22.2445 14.3112C20.3911 14.4869 18.7059 15.2458 17.372 16.4002L17.9083 10.7273ZM1.3751 23.1191L9.75401 18.2846L13.7571 23.1206L9.75401 27.9537L1.3751 23.1191ZM16.4843 28.7111L10.7655 28.1705L14.3881 23.7941C14.5561 25.6647 15.3186 27.3673 16.4843 28.7111ZM14.3713 22.4243L10.6509 17.9288L16.4003 17.3867C15.2376 18.7686 14.495 20.514 14.3713 22.4243ZM7.68984 38.3771L10.194 29.0378L16.4461 29.6273L17.0359 35.8743L7.68984 38.3771ZM16.4446 16.4628L10.194 17.0522L7.68984 7.71146L17.0359 10.2142L16.4446 16.4628ZM17.3644 29.5922C18.6982 30.7512 20.3866 31.5116 22.2429 31.6888L17.9007 35.2788L17.3644 29.5922ZM23.0008 44.6257L18.1635 36.2515L22.9992 32.2507L27.838 36.2515L23.0008 44.6257ZM28.0947 35.2742L23.7739 31.7025C25.6043 31.559 27.2773 30.8504 28.6173 29.751L28.0947 35.2742ZM38.3102 38.3145L28.9641 35.8117L29.5554 29.5647L35.806 28.9737L38.3102 38.3145ZM36.246 27.9537L32.2429 23.1191L36.246 18.283L44.6249 23.1191L36.246 27.9537Z" fill="url(#paint0_radial_80_7352)"/>
</g>
<defs>
<radialGradient id="paint0_radial_80_7352" cx="0" cy="0" r="1" gradientUnits="userSpaceOnUse" gradientTransform="translate(23.0008 23) scale(23.0069 22.9939)">
<stop offset="0.1" stop-color="#064D29"/>
<stop offset="0.44" stop-color="#26B34B"/>
<stop offset="0.49" stop-color="#42BA43"/>
<stop offset="0.59" stop-color="#78C934"/>
<stop offset="0.68" stop-color="#A6D528"/>
<stop offset="0.77" stop-color="#C9DF1F"/>
<stop offset="0.86" stop-color="#E2E618"/>
<stop offset="0.94" stop-color="#F1EA14"/>
<stop offset="1" stop-color="#F7EC13"/>
</radialGradient>
<clipPath id="clip0_80_7352">
<rect width="46" height="46" fill="white"/>
</clipPath>
</defs>
</svg>
