<svg width="28" height="26" viewBox="0 0 28 26" fill="none" xmlns="http://www.w3.org/2000/svg">
    <path d="M27.6335 8.99017L14.4571 0.139522C14.3217 0.0485491 14.1627 0 14 0C13.8373 0 13.6783 0.0485491 13.5429 0.139522L0.366471 8.99017C0.253562 9.06607 0.161023 9.16891 0.0970871 9.28954C0.0331508 9.41018 -0.000200285 9.54487 9.04878e-07 9.68162V24.0639C9.04878e-07 24.5774 0.202451 25.0699 0.562815 25.4329C0.923179 25.796 1.41194 26 1.92157 26H26.0784C26.5881 26 27.0768 25.796 27.4372 25.4329C27.7975 25.0699 28 24.5774 28 24.0639V9.68162C28.0002 9.54487 27.9668 9.41018 27.9029 9.28954C27.839 9.16891 27.7464 9.06607 27.6335 8.99017ZM10.1816 17.4259L1.64706 23.4969V11.2927L10.1816 17.4259ZM11.8657 18.2557H16.1343L24.6839 24.3405H3.31608L11.8657 18.2557ZM17.8184 17.4259L26.3529 11.2927V23.4969L17.8184 17.4259ZM14 1.82806L25.7257 9.71066L16.1316 16.5962H11.8684L2.27431 9.70513L14 1.82806Z" fill="#C9C9C9"/>
</svg>