<svg width="23" height="25" viewBox="0 0 23 25" fill="none" xmlns="http://www.w3.org/2000/svg">
    <path d="M22.837 23.385L14.6592 10.5832L22.7286 1.74109C22.9111 1.53617 23.0052 1.26786 22.9904 0.994324C22.9756 0.720788 22.8532 0.464076 22.6497 0.279844C22.4462 0.0956124 22.1779 -0.00129064 21.9032 0.0101444C21.6284 0.0215794 21.3693 0.140431 21.1819 0.340931L13.4953 8.76271L8.20582 0.482769C8.1115 0.334886 7.98124 0.213109 7.82709 0.128718C7.67295 0.0443277 7.49992 5.4302e-05 7.32403 1.23145e-07H1.05351C0.866131 -9.06506e-05 0.682171 0.0500041 0.520895 0.145039C0.35962 0.240073 0.226962 0.376552 0.136813 0.540183C0.0466634 0.703814 0.00233912 0.888579 0.00848072 1.07513C0.0146223 1.26168 0.071004 1.44316 0.171722 1.60055L8.34952 14.4011L0.28015 23.2497C0.185918 23.3505 0.112714 23.469 0.0647807 23.5982C0.0168474 23.7274 -0.0048621 23.8648 0.000911003 24.0024C0.00668411 24.1401 0.0398251 24.2752 0.0984124 24.4C0.157 24.5248 0.239868 24.6367 0.342215 24.7294C0.444562 24.822 0.564353 24.8935 0.694643 24.9397C0.824933 24.9859 0.963131 25.0059 1.10123 24.9985C1.23933 24.9911 1.37458 24.9565 1.49914 24.8966C1.6237 24.8368 1.7351 24.7529 1.82688 24.6498L9.51349 16.2281L14.8029 24.508C14.898 24.6547 15.0286 24.7752 15.1827 24.8584C15.3368 24.9416 15.5094 24.9849 15.6847 24.9843H21.9552C22.1424 24.9842 22.3261 24.9341 22.4872 24.8391C22.6483 24.7441 22.7808 24.6078 22.8709 24.4444C22.961 24.281 23.0054 24.0964 22.9995 23.9101C22.9935 23.7237 22.9374 23.5424 22.837 23.385ZM16.2582 22.9022L2.95688 2.08202H6.74531L20.0519 22.9022H16.2582Z" fill="#C9C9C9"/>
</svg>